<svg width="22" height="22" viewBox="0 0 22 22" fill="none" xmlns="http://www.w3.org/2000/svg">
<path fill-rule="evenodd" clip-rule="evenodd" d="M12.3739 1.50573C12.3085 1.49809 12.2424 1.49809 12.1769 1.50573C12.0958 1.51521 11.9749 1.55265 11.734 1.74382C11.4806 1.94484 11.1766 2.24717 10.7119 2.71189C10.2472 3.17662 9.94484 3.48059 9.74382 3.73395C9.55265 3.9749 9.51521 4.09583 9.50573 4.17695C9.49809 4.24238 9.49809 4.30848 9.50573 4.37391C9.51521 4.45503 9.55265 4.57597 9.74382 4.81691C9.94484 5.07027 10.2472 5.37425 10.7119 5.83897L15.661 10.7881C16.1258 11.2528 16.4297 11.5552 16.6831 11.7562C16.924 11.9474 17.045 11.9848 17.1261 11.9943C17.1915 12.0019 17.2576 12.0019 17.3231 11.9943C17.4042 11.9848 17.5251 11.9474 17.766 11.7562C18.0194 11.5552 18.3234 11.2528 18.7881 10.7881C19.2528 10.3234 19.5552 10.0194 19.7562 9.76605C19.9474 9.5251 19.9848 9.40417 19.9943 9.32305C20.0019 9.25762 20.0019 9.19152 19.9943 9.12609C19.9848 9.04497 19.9474 8.92404 19.7562 8.68309C19.5552 8.42973 19.2528 8.12576 18.7881 7.66103L13.839 2.71189C13.3742 2.24717 13.0703 1.94484 12.8169 1.74382C12.576 1.55265 12.455 1.51521 12.3739 1.50573ZM12.0029 0.0158593C12.184 -0.00528644 12.3669 -0.00528644 12.5479 0.0158593C13.0189 0.0708674 13.4001 0.291713 13.7492 0.568758C14.0784 0.829891 14.4432 1.19477 14.8698 1.62143L19.8786 6.63021C20.3052 7.05682 20.6701 7.42166 20.9312 7.75077C21.2083 8.09994 21.4291 8.4811 21.4841 8.95208C21.5053 9.13312 21.5053 9.31602 21.4841 9.49706C21.4291 9.96804 21.2083 10.3492 20.9312 10.6984C20.6701 11.0275 20.3052 11.3923 19.8786 11.819L19.819 11.8786C19.3923 12.3052 19.0275 12.6701 18.6984 12.9312C18.3492 13.2083 17.968 13.4291 17.4971 13.4841C17.316 13.5053 17.1331 13.5053 16.9521 13.4841C16.4811 13.4291 16.0999 13.2083 15.7508 12.9312C15.4216 12.6701 15.0568 12.3052 14.6302 11.8786L14.0188 11.2672L11.2672 14.0188L11.8786 14.6302C12.3052 15.0568 12.6701 15.4216 12.9312 15.7508C13.2083 16.0999 13.4291 16.4811 13.4841 16.9521C13.5053 17.1331 13.5053 17.316 13.4841 17.4971C13.4291 17.968 13.2083 18.3492 12.9312 18.6984C12.6701 19.0275 12.3052 19.3924 11.8785 19.819L11.819 19.8785C11.3924 20.3052 11.0275 20.6701 10.6984 20.9312C10.3492 21.2083 9.96804 21.4291 9.49706 21.4841C9.31602 21.5053 9.13312 21.5053 8.95208 21.4841C8.4811 21.4291 8.09994 21.2083 7.75077 20.9312C7.42164 20.6701 7.05679 20.3052 6.63018 19.8786L1.62144 14.8698C1.19478 14.4432 0.829895 14.0784 0.568759 13.7492C0.291713 13.4001 0.0708674 13.0189 0.0158593 12.5479C-0.00528644 12.3669 -0.00528644 12.184 0.0158593 12.0029C0.0708674 11.532 0.291713 11.1508 0.568759 10.8016C0.829891 10.4725 1.19477 10.1077 1.62142 9.68105L1.68105 9.62142C2.10766 9.19477 2.47251 8.82989 2.80163 8.56876C3.1508 8.29171 3.53196 8.07087 4.00294 8.01586C4.18398 7.99471 4.36688 7.99471 4.54793 8.01586C5.0189 8.07087 5.40006 8.29171 5.74923 8.56876C6.07835 8.82989 6.4432 9.19477 6.86981 9.62142L7.10253 9.85414L9.85414 7.10253L9.62142 6.86982C9.19477 6.4432 8.82989 6.07835 8.56876 5.74923C8.29171 5.40006 8.07087 5.0189 8.01586 4.54793C7.99471 4.36688 7.99471 4.18398 8.01586 4.00294C8.07087 3.53196 8.29171 3.1508 8.56876 2.80163C8.82989 2.47251 9.19477 2.10767 9.62142 1.68105L9.68104 1.62142C10.1077 1.19477 10.4725 0.829891 10.8016 0.568759C11.1508 0.291713 11.532 0.0708674 12.0029 0.0158593ZM10.9148 8.16319L8.16319 10.9148L10.2065 12.9582L12.9582 10.2065L10.9148 8.16319ZM16.2385 0.717961C16.5314 0.425068 17.0062 0.425068 17.2991 0.717961L20.4031 3.82197C20.696 4.11487 20.696 4.58974 20.4031 4.88263C20.1102 5.17553 19.6354 5.17553 19.3425 4.88263L16.2385 1.77862C15.9456 1.48573 15.9456 1.01085 16.2385 0.717961ZM4.37391 9.50573C4.30848 9.49809 4.24238 9.49809 4.17695 9.50573C4.09583 9.51521 3.9749 9.55265 3.73395 9.74382C3.48059 9.94484 3.17662 10.2472 2.71189 10.7119C2.24717 11.1766 1.94484 11.4806 1.74382 11.734C1.55265 11.9749 1.51521 12.0958 1.50573 12.1769C1.49809 12.2424 1.49809 12.3085 1.50573 12.3739C1.51521 12.455 1.55265 12.576 1.74382 12.8169C1.94484 13.0703 2.24717 13.3742 2.7119 13.839L7.66103 18.7881C8.12576 19.2528 8.42973 19.5552 8.68309 19.7562C8.92404 19.9474 9.04497 19.9848 9.12609 19.9943C9.19152 20.0019 9.25762 20.0019 9.32305 19.9943C9.40417 19.9848 9.5251 19.9474 9.76605 19.7562C10.0194 19.5552 10.3234 19.2528 10.7881 18.7881C11.2528 18.3234 11.5552 18.0194 11.7562 17.766C11.9474 17.5251 11.9848 17.4042 11.9943 17.3231C12.0019 17.2576 12.0019 17.1915 11.9943 17.1261C11.9848 17.045 11.9474 16.924 11.7562 16.6831C11.5552 16.4297 11.2528 16.1258 10.7881 15.661L5.83897 10.7119C5.37424 10.2472 5.07027 9.94484 4.81691 9.74382C4.57596 9.55265 4.45503 9.51521 4.37391 9.50573ZM0.717229 16.2379C1.01012 15.945 1.485 15.945 1.77789 16.2379L4.8819 19.3419C5.17479 19.6348 5.17479 20.1096 4.8819 20.4025C4.58901 20.6954 4.11413 20.6954 3.82124 20.4025L0.717228 17.2985C0.424335 17.0056 0.424335 16.5308 0.717229 16.2379Z" fill="#92373C"/>
</svg>
