<svg width="16" height="18" viewBox="0 0 16 18" fill="none" xmlns="http://www.w3.org/2000/svg">
<path fill-rule="evenodd" clip-rule="evenodd" d="M6.48798 0C5.71436 0 5.06904 0.591231 5.00148 1.36189C4.86024 2.97317 4.8245 4.59164 4.89436 6.20693C4.81003 6.21258 4.72571 6.21847 4.6414 6.22462L3.1519 6.3332C2.19985 6.4026 1.66764 7.46416 2.18163 8.26854C3.2778 9.98406 4.69026 11.4754 6.34369 12.6632L6.94043 13.0918C7.42425 13.4394 8.07591 13.4394 8.55972 13.0918L9.15646 12.6632C10.8099 11.4754 12.2224 9.98406 13.3185 8.26855C13.8325 7.46416 13.3003 6.4026 12.3483 6.3332L10.8588 6.22462C10.7745 6.21847 10.6901 6.21258 10.6058 6.20693C10.6757 4.59164 10.6399 2.97317 10.4987 1.36188C10.4311 0.591229 9.7858 0 9.01219 0H6.48798ZM6.43157 6.86473C6.31786 5.0775 6.33909 3.28417 6.49513 1.5H9.00503C9.16106 3.28417 9.1823 5.0775 9.06859 6.86473C9.05584 7.06509 9.12396 7.26221 9.2577 7.41195C9.39144 7.5617 9.57964 7.65156 9.78017 7.66144C10.1035 7.67737 10.4267 7.69711 10.7497 7.72065L11.8315 7.79951C10.8719 9.21281 9.67044 10.4471 8.28133 11.4449L7.75008 11.8265L7.21882 11.4449C5.82972 10.4471 4.62824 9.2128 3.6687 7.79951L4.75046 7.72065C5.07345 7.69711 5.39664 7.67737 5.71999 7.66144C5.92052 7.65156 6.10871 7.56169 6.24246 7.41195C6.3762 7.26221 6.44432 7.06509 6.43157 6.86473Z" fill="#F7EEEE"/>
<path d="M1.5 13.75C1.5 13.3358 1.16421 13 0.75 13C0.335786 13 0 13.3358 0 13.75V15.75C0 16.7165 0.783502 17.5 1.75 17.5H13.75C14.7165 17.5 15.5 16.7165 15.5 15.75V13.75C15.5 13.3358 15.1642 13 14.75 13C14.3358 13 14 13.3358 14 13.75V15.75C14 15.8881 13.8881 16 13.75 16H1.75C1.61193 16 1.5 15.8881 1.5 15.75V13.75Z" fill="#F7EEEE"/>
</svg>
