<svg width="20" height="22" viewBox="0 0 20 22" fill="none" xmlns="http://www.w3.org/2000/svg">
<path fill-rule="evenodd" clip-rule="evenodd" d="M9.75016 1.5C8.78366 1.5 8.00016 2.2835 8.00016 3.25C8.00016 4.2165 8.78366 5 9.75016 5C10.7167 5 11.5002 4.2165 11.5002 3.25C11.5002 2.2835 10.7167 1.5 9.75016 1.5ZM6.50016 3.25C6.50016 1.45507 7.95524 0 9.75016 0C11.5451 0 13.0002 1.45507 13.0002 3.25C13.0002 5.04493 11.5451 6.5 9.75016 6.5C7.95524 6.5 6.50016 5.04493 6.50016 3.25ZM10.6189 8.57208C10.0483 8.47597 9.45204 8.47597 8.88141 8.57208C6.37372 8.99446 4.50016 11.1961 4.50016 13.7696C4.50016 14.3342 4.18448 14.8549 3.67728 15.1112L1.08841 16.4194C0.718711 16.6062 0.267574 16.4579 0.0807666 16.0882C-0.106041 15.7185 0.0422195 15.2674 0.411916 15.0806L2.99941 13.7731C2.9998 13.7724 3.00016 13.7713 3.00016 13.7696C3.00016 10.4643 5.40199 7.63701 8.63227 7.09292C9.36783 6.96903 10.1325 6.96903 10.8681 7.09292C14.0983 7.63701 16.5002 10.4643 16.5002 13.7696C16.5002 13.7713 16.5005 13.7724 16.5009 13.7731L19.0884 15.0806C19.4581 15.2674 19.6064 15.7185 19.4196 16.0882C19.2327 16.4579 18.7816 16.6062 18.4119 16.4194L15.823 15.1112C15.3158 14.8549 15.0002 14.3342 15.0002 13.7696C15.0002 11.1961 13.1266 8.99446 10.6189 8.57208ZM7.70016 14.15C8.03153 14.3985 8.09869 14.8686 7.85016 15.2L6.80382 16.5951C6.77652 16.6315 6.75508 16.6601 6.73291 16.6881C6.3712 17.1454 5.87354 17.4758 5.31179 17.6317C5.27737 17.6413 5.24265 17.65 5.19854 17.661L5.19108 17.6629L3.70629 18.034C2.99744 18.2113 2.50016 18.8482 2.50016 19.5788C2.50016 19.8114 2.68872 20 2.92133 20H4.47743C5.09385 20 5.34247 19.9988 5.57961 19.9709C6.15779 19.903 6.71585 19.717 7.21917 19.4244C7.42561 19.3044 7.62522 19.1562 8.11834 18.7864L8.30016 18.65L10.3002 17.15C10.6315 16.9015 11.1016 16.9686 11.3502 17.3C11.5987 17.6314 11.5315 18.1015 11.2002 18.35L10.2955 19.0285L11.5532 19.5001C12.1799 19.7351 12.4327 19.8284 12.6897 19.8885C12.8282 19.9209 12.9682 19.9463 13.1093 19.9646C13.371 19.9986 13.6405 20 14.3098 20H16.579C16.8116 20 17.0002 19.8114 17.0002 19.5788C17.0002 18.8482 16.5029 18.2113 15.794 18.034L14.3014 17.6609C14.2574 17.6499 14.2229 17.6413 14.1885 17.6317C13.6268 17.4758 13.1291 17.1454 12.7674 16.6881C12.7453 16.6602 12.7237 16.6314 12.6965 16.5951L12.6919 16.589L11.6502 15.2C11.4016 14.8686 11.4688 14.3985 11.8002 14.15C12.1315 13.9015 12.6016 13.9686 12.8502 14.3L13.8919 15.689C13.9259 15.7343 13.9352 15.7466 13.9438 15.7575C14.1082 15.9653 14.3344 16.1155 14.5898 16.1864C14.6031 16.1901 14.6179 16.1939 14.673 16.2076L16.1578 16.5788C17.5344 16.923 18.5002 18.1599 18.5002 19.5788C18.5002 20.6399 17.64 21.5 16.579 21.5L14.2581 21.5C13.6563 21.5 13.2854 21.5001 12.9161 21.4521C12.7252 21.4273 12.5357 21.3929 12.3483 21.3491C11.9856 21.2644 11.6384 21.1341 11.0749 20.9228L8.87148 20.0965C8.49101 20.3816 8.23993 20.5661 7.97293 20.7213C7.29197 21.1171 6.53696 21.3687 5.75471 21.4607C5.4198 21.5001 5.0791 21.5 4.52561 21.5H2.92133C1.8603 21.5 1.00016 20.6399 1.00016 19.5788C1.00016 18.1599 1.96589 16.923 3.34249 16.5788L4.82728 16.2076C4.88237 16.1939 4.89719 16.1901 4.91057 16.1864C5.16591 16.1155 5.39211 15.9653 5.55653 15.7575C5.56514 15.7466 5.57435 15.7344 5.60843 15.689L6.65016 14.3C6.89869 13.9686 7.36879 13.9015 7.70016 14.15Z" fill="#A9494E"/>
</svg>
