<svg width="21" height="24" viewBox="0 0 21 24" fill="none" xmlns="http://www.w3.org/2000/svg">
<path fill-rule="evenodd" clip-rule="evenodd" d="M8.65063 0C7.61915 0 6.75872 0.788308 6.66865 1.81585C6.48032 3.96423 6.43267 6.12218 6.52581 8.27591C6.41337 8.28344 6.30095 8.2913 6.18854 8.29949L4.20253 8.44426C2.93313 8.5368 2.22353 9.95221 2.90884 11.0247C4.3704 13.3121 6.25367 15.3006 8.45826 16.8842L9.25391 17.4558C9.899 17.9192 10.7679 17.9192 11.413 17.4558L12.2086 16.8842C14.4132 15.3006 16.2965 13.3121 17.758 11.0247C18.4434 9.95221 17.7337 8.5368 16.4643 8.44426L14.4783 8.29949C14.3659 8.2913 14.2535 8.28344 14.1411 8.27591C14.2342 6.12218 14.1866 3.96422 13.9982 1.81584C13.9082 0.788305 13.0477 0 12.0162 0H8.65063ZM8.57543 9.15297C8.42381 6.77001 8.45212 4.3789 8.66017 2H12.0067C12.2148 4.3789 12.2431 6.77001 12.0914 9.15297C12.0745 9.42013 12.1653 9.68295 12.3436 9.8826C12.5219 10.0823 12.7729 10.2021 13.0402 10.2153C13.4714 10.2365 13.9023 10.2628 14.3329 10.2942L15.7753 10.3993C14.4959 12.2837 12.8939 13.9294 11.0418 15.2599L10.3334 15.7687L9.6251 15.2599C7.77296 13.9294 6.17098 12.2837 4.8916 10.3993L6.33394 10.2942C6.7646 10.2628 7.19553 10.2365 7.62665 10.2153C7.89402 10.2021 8.14495 10.0823 8.32327 9.8826C8.5016 9.68295 8.59242 9.42013 8.57543 9.15297Z" fill="#92373C"/>
<path d="M2 18.3333C2 17.781 1.55228 17.3333 1 17.3333C0.447715 17.3333 0 17.781 0 18.3333V21C0 22.2887 1.04467 23.3333 2.33333 23.3333H18.3333C19.622 23.3333 20.6667 22.2887 20.6667 21V18.3333C20.6667 17.781 20.219 17.3333 19.6667 17.3333C19.1144 17.3333 18.6667 17.781 18.6667 18.3333V21C18.6667 21.1841 18.5174 21.3333 18.3333 21.3333H2.33333C2.14924 21.3333 2 21.1841 2 21V18.3333Z" fill="#92373C"/>
</svg>
